<?xml version="1.0" encoding="UTF-8" standalone="no"?>
<!--suppress ALL -->
<svg
   xmlns:dc="http://purl.org/dc/elements/1.1/"
   xmlns:cc="http://creativecommons.org/ns#"
   xmlns:rdf="http://www.w3.org/1999/02/22-rdf-syntax-ns#"
   xmlns:svg="http://www.w3.org/2000/svg"
   xmlns="http://www.w3.org/2000/svg"
   xmlns:sodipodi="http://sodipodi.sourceforge.net/DTD/sodipodi-0.dtd"
   xmlns:inkscape="http://www.inkscape.org/namespaces/inkscape"
   id="Layer_1"
   data-name="Layer 1"
   viewBox="0 0 512 512"
   version="1.1"
   sodipodi:docname="Pingouin.svg"
   width="512"
   height="512"
   inkscape:export-filename="C:\Users\ThomasBOULLIER\Projects\champagne\public\icons\mstile-150x150.png"
   inkscape:export-xdpi="28.120001"
   inkscape:export-ydpi="28.120001"
   inkscape:version="0.92.4 (5da689c313, 2019-01-14)">
  <metadata
     id="metadata15">
    <rdf:RDF>
      <cc:Work
         rdf:about="">
        <dc:format>image/svg+xml</dc:format>
        <dc:type
           rdf:resource="http://purl.org/dc/dcmitype/StillImage" />
        <dc:title>Pingouin</dc:title>
      </cc:Work>
    </rdf:RDF>
  </metadata>
  <sodipodi:namedview
     pagecolor="#ffffff"
     bordercolor="#666666"
     borderopacity="1"
     objecttolerance="10"
     gridtolerance="10"
     guidetolerance="10"
     inkscape:pageopacity="0"
     inkscape:pageshadow="2"
     inkscape:window-width="958"
     inkscape:window-height="1008"
     id="namedview13"
     showgrid="false"
     inkscape:zoom="0.54148312"
     inkscape:cx="287.56505"
     inkscape:cy="-24.17396"
     inkscape:window-x="-7"
     inkscape:window-y="0"
     inkscape:window-maximized="0"
     inkscape:current-layer="Layer_1" />
  <defs
     id="defs4">
    <style
       id="style2">.cls-1{fill:#0b2f51;}</style>
  </defs>
  <title
     id="title6">Pingouin</title>
  <g
     id="g19"
     transform="matrix(2.1116294,0,0,2.1116294,138.32567,-595.0909)">
    <path
       style="fill:#0b2f51"
       inkscape:connector-curvature="0"
       id="path8"
       d="m 111.49,315.54001 c -10.21,4.44 -19.75,6.85 -28.1,13.16 -12.84,9.71 -13.84,14.34 -5.08,28.92 17.59,29.28 19.87,62.76999 17.06,97.60999 -1.64,20.27 -2.29,30.42 -4.31,34.51 -1,2.1 -4.61,8.78 -2.19,12.27 0.92,1.33 2.26,1.6 4.13,2.31 a 30.45,30.45 0 0 1 11.05,7.65 h -86 c 5.65,-2.55 9.41,-3 11.86,-2.88 0.7,0 3,0.13 6.29,0.18 6.14,0.1 8.53,-0.72 16.82,-1.71 9.77,-1.16 10.21,-0.49 14.73,-1.77 4.52,-1.28 7.56,-3.77 10.65,-6.29 a 21,21 0 0 0 4.31,-4.27 20.54,20.54 0 0 0 2.22,-4.33 c 1.88,-5.36 -0.19,-12.13 -1.58,-19.83 a 109.89,109.89 0 0 1 -1.69,-15.44 c -0.11,-3.42 0.08,-8.14 0.47,-17.57 0.31,-7.6 0.43,-8.31 0.29,-11 -0.07,-1.34 -0.14,-1.84 -1.75,-13.24 -0.65,-4.6 -1,-6.94 -1.86,-8.85 -0.79,-1.72 -3.05,-6.68 -6.12,-6.77 -4.85,-0.14 -8.44,12 -8.73,12.94 a 30.35,30.35 0 0 0 -1.11,5.48 c -0.34,4.19 0.77,7.42 0.47,18.68 0,0 -1.17,12.83 -9.09,31.3 -0.89,2.09 -2.53,5.75 -4.21,5.52 -2.07,-0.28 -2.27,-3.54 -3,-5.69 -7.9,-23.26 -5.45,-46.06 2.44,-68.66 6.25,-17.92999 13.8,-35.18999 18.21,-54.06999 1.49,-6.16 2.57,-12.33 -1.59,-17.16 a 11.36,11.36 0 0 0 -4.28,-3.2 38.09,38.09 0 0 0 -10.52,0.59 c -24.21,4.81 -36.2,32.2 -38.4,37.44 6.77,-16.1 13,-29.27 17.82,-39.06 5.09,-10.32 7.74,-15 13.1,-19.4 1.66,-1.36 15.08,-12 27.71,-7.81 5.52,1.85 8.28,0.88 16.27,9.46 3.18,3.42 7.09,3.59 10.84,4.25 4.47,0.73 8.62,2.01 12.87,6.73 z"
       class="cls-1" />
    <path
       style="fill:#0b2f51"
       inkscape:connector-curvature="0"
       id="path10"
       d="m 5.67,396.29001 c 0.52,0.09 -2.48,10.95 -1,26.43 0.13,1.3 0.08,0.48 2,15.37 1.55,12.11 1.51,12 1.75,13.24 2.49,12.58 7.15,18.93 5.76,20 -1.19,0.87 -5.57,-3.07 -8.21,-6.84 a 28.31,28.31 0 0 1 -4,-8.91 c -0.53,-1.81 -1.58,-5.78 -1.91,-13.91 a 112.71,112.71 0 0 1 0.34,-14.57 c 1.49,-15.96 4.66,-30.91 5.27,-30.81 z"
       class="cls-1" />
  </g>
</svg>
