<?xml version="1.0" encoding="UTF-8"?>
<svg width="16pt" height="16pt" version="1.1" viewBox="0 0 16 16" xmlns="http://www.w3.org/2000/svg">
 <g transform="matrix(.068857 0 0 .068857 4.1628 -19.753)">
  <path class="cls-1" d="m111.49 315.54c-10.21 4.44-19.75 6.85-28.1 13.16-12.84 9.71-13.84 14.34-5.08 28.92 17.59 29.28 19.87 62.77 17.06 97.61-1.64 20.27-2.29 30.42-4.31 34.51-1 2.1-4.61 8.78-2.19 12.27 0.92 1.33 2.26 1.6 4.13 2.31a30.45 30.45 0 0 1 11.05 7.65h-86c5.65-2.55 9.41-3 11.86-2.88 0.7 0 3 0.13 6.29 0.18 6.14 0.1 8.53-0.72 16.82-1.71 9.77-1.16 10.21-0.49 14.73-1.77s7.56-3.77 10.65-6.29a21 21 0 0 0 4.31-4.27 20.54 20.54 0 0 0 2.22-4.33c1.88-5.36-0.19-12.13-1.58-19.83a109.89 109.89 0 0 1-1.69-15.44c-0.11-3.42 0.08-8.14 0.47-17.57 0.31-7.6 0.43-8.31 0.29-11-0.07-1.34-0.14-1.84-1.75-13.24-0.65-4.6-1-6.94-1.86-8.85-0.79-1.72-3.05-6.68-6.12-6.77-4.85-0.14-8.44 12-8.73 12.94a30.35 30.35 0 0 0-1.11 5.48c-0.34 4.19 0.77 7.42 0.47 18.68 0 0-1.17 12.83-9.09 31.3-0.89 2.09-2.53 5.75-4.21 5.52-2.07-0.28-2.27-3.54-3-5.69-7.9-23.26-5.45-46.06 2.44-68.66 6.25-17.93 13.8-35.19 18.21-54.07 1.49-6.16 2.57-12.33-1.59-17.16a11.36 11.36 0 0 0-4.28-3.2 38.09 38.09 0 0 0-10.52 0.59c-24.21 4.81-36.2 32.2-38.4 37.44 6.77-16.1 13-29.27 17.82-39.06 5.09-10.32 7.74-15 13.1-19.4 1.66-1.36 15.08-12 27.71-7.81 5.52 1.85 8.28 0.88 16.27 9.46 3.18 3.42 7.09 3.59 10.84 4.25 4.47 0.73 8.62 2.01 12.87 6.73z"/>
  <path class="cls-1" d="m5.67 396.29c0.52 0.09-2.48 10.95-1 26.43 0.13 1.3 0.08 0.48 2 15.37 1.55 12.11 1.51 12 1.75 13.24 2.49 12.58 7.15 18.93 5.76 20-1.19 0.87-5.57-3.07-8.21-6.84a28.31 28.31 0 0 1-4-8.91c-0.53-1.81-1.58-5.78-1.91-13.91a112.71 112.71 0 0 1 0.34-14.57c1.49-15.96 4.66-30.91 5.27-30.81z"/>
 </g>
</svg>
